<svg xmlns="http://www.w3.org/2000/svg" viewBox="0 0 800 600">
  <defs>
    <linearGradient id="grad1" x1="0%" y1="0%" x2="100%" y2="0%">
      <stop offset="0%" style="stop-color:#f83600;stop-opacity:1" />
      <stop offset="100%" style="stop-color:#f9d423;stop-opacity:1" />
    </linearGradient>
    <linearGradient id="grad2" x1="0%" y1="0%" x2="100%" y2="0%">
      <stop offset="0%" style="stop-color:#30cfd0;stop-opacity:1" />
      <stop offset="100%" style="stop-color:#330867;stop-opacity:1" />
    </linearGradient>
    <linearGradient id="cloudGrad" x1="0%" y1="0%" x2="100%" y2="100%">
      <stop offset="0%" style="stop-color:#ffffff;stop-opacity:1" />
      <stop offset="100%" style="stop-color:#f0f0f0;stop-opacity:1" />
    </linearGradient>
  </defs>
  
  <!-- Cloud Implementation Illustration -->
  
  <!-- Background -->
  <rect x="0" y="0" width="800" height="600" fill="#141414" />
  
  <!-- Implementation Visuals -->
  <g transform="translate(400, 300)">
    <!-- Blueprint background -->
    <rect x="-200" y="-150" width="400" height="300" fill="#1e3a8a" opacity="0.1" />
    <g stroke="#30cfd0" stroke-width="0.5" opacity="0.3">
      <line x1="-200" y1="-150" x2="200" y2="-150" />
      <line x1="-200" y1="-120" x2="200" y2="-120" />
      <line x1="-200" y1="-90" x2="200" y2="-90" />
      <line x1="-200" y1="-60" x2="200" y2="-60" />
      <line x1="-200" y1="-30" x2="200" y2="-30" />
      <line x1="-200" y1="0" x2="200" y2="0" />
      <line x1="-200" y1="30" x2="200" y2="30" />
      <line x1="-200" y1="60" x2="200" y2="60" />
      <line x1="-200" y1="90" x2="200" y2="90" />
      <line x1="-200" y1="120" x2="200" y2="120" />
      <line x1="-200" y1="150" x2="200" y2="150" />
      
      <line x1="-200" y1="-150" x2="-200" y2="150" />
      <line x1="-170" y1="-150" x2="-170" y2="150" />
      <line x1="-140" y1="-150" x2="-140" y2="150" />
      <line x1="-110" y1="-150" x2="-110" y2="150" />
      <line x1="-80" y1="-150" x2="-80" y2="150" />
      <line x1="-50" y1="-150" x2="-50" y2="150" />
      <line x1="-20" y1="-150" x2="-20" y2="150" />
      <line x1="10" y1="-150" x2="10" y2="150" />
      <line x1="40" y1="-150" x2="40" y2="150" />
      <line x1="70" y1="-150" x2="70" y2="150" />
      <line x1="100" y1="-150" x2="100" y2="150" />
      <line x1="130" y1="-150" x2="130" y2="150" />
      <line x1="160" y1="-150" x2="160" y2="150" />
      <line x1="190" y1="-150" x2="190" y2="150" />
    </g>
    
    <!-- Cloud components being assembled -->
    <!-- Main cloud platform -->
    <path d="M0,0 Q40,-50 80,-25 Q120,0 100,40 Q80,80 30,60 Q-20,40 -30,20 Q-40,0 0,0" fill="url(#cloudGrad)" opacity="0.7" />
    
    <!-- Component 1: Database -->
    <g transform="translate(-100, -80)">
      <rect x="-30" y="-15" width="60" height="40" fill="#30cfd0" />
      <rect x="-30" y="-30" width="60" height="15" fill="#330867" />
      <text x="0" y="10" font-family="Arial" font-size="10" fill="#fff" text-anchor="middle">Database</text>
      
      <!-- Component moving animation -->
      <animateTransform attributeName="transform" type="translate" from="-150,-80" to="-100,-80" dur="2s" fill="freeze" />
    </g>
    
    <!-- Component 2: Storage -->
    <g transform="translate(90, -60)">
      <rect x="-25" y="-25" width="50" height="50" fill="#f83600" />
      <rect x="-15" y="-15" width="30" height="30" fill="#f9d423" />
      <text x="0" y="40" font-family="Arial" font-size="10" fill="#fff" text-anchor="middle">Storage</text>
      
      <!-- Component moving animation -->
      <animateTransform attributeName="transform" type="translate" from="150,-60" to="90,-60" dur="2.5s" fill="freeze" />
    </g>
    
    <!-- Component 3: Compute -->
    <g transform="translate(0, 90)">
      <rect x="-20" y="-20" width="40" height="40" fill="#f9d423" />
      <line x1="-10" y1="-10" x2="10" y2="10" stroke="#141414" stroke-width="2" />
      <line x1="10" y1="-10" x2="-10" y2="10" stroke="#141414" stroke-width="2" />
      <text x="0" y="35" font-family="Arial" font-size="10" fill="#fff" text-anchor="middle">Compute</text>
      
      <!-- Component moving animation -->
      <animateTransform attributeName="transform" type="translate" from="0,150" to="0,90" dur="3s" fill="freeze" />
    </g>
    
    <!-- Component 4: Networking -->
    <g transform="translate(-80, 50)">
      <circle cx="0" cy="0" r="20" fill="#30cfd0" />
      <circle cx="0" cy="0" r="10" fill="#330867" />
      <line x1="-15" y1="-15" x2="15" y2="15" stroke="#fff" stroke-width="1" />
      <line x1="15" y1="-15" x2="-15" y2="15" stroke="#fff" stroke-width="1" />
      <text x="0" y="35" font-family="Arial" font-size="10" fill="#fff" text-anchor="middle">Network</text>
      
      <!-- Component moving animation -->
      <animateTransform attributeName="transform" type="translate" from="-140,50" to="-80,50" dur="2.8s" fill="freeze" />
    </g>
    
    <!-- Integration lines -->
    <line x1="-100" y1="-80" x2="0" y2="0" stroke="#30cfd0" stroke-width="1" stroke-dasharray="5,2">
      <animate attributeName="opacity" values="0;1" dur="3s" fill="freeze" />
    </line>
    <line x1="90" y1="-60" x2="0" y2="0" stroke="#f83600" stroke-width="1" stroke-dasharray="5,2">
      <animate attributeName="opacity" values="0;1" dur="3.5s" fill="freeze" />
    </line>
    <line x1="0" y1="90" x2="0" y2="0" stroke="#f9d423" stroke-width="1" stroke-dasharray="5,2">
      <animate attributeName="opacity" values="0;1" dur="4s" fill="freeze" />
    </line>
    <line x1="-80" y1="50" x2="0" y2="0" stroke="#330867" stroke-width="1" stroke-dasharray="5,2">
      <animate attributeName="opacity" values="0;1" dur="3.8s" fill="freeze" />
    </line>
  </g>
  
  <!-- Code/Implementation Elements -->
  <g transform="translate(650, 400)">
    <!-- Code snippets -->
    <rect x="-100" y="-80" width="200" height="160" rx="5" fill="#141414" stroke="#30cfd0" stroke-width="1" />
    <text x="-90" y="-50" font-family="Courier New" font-size="8" fill="#30cfd0">function deployCloud() {</text>
    <text x="-90" y="-30" font-family="Courier New" font-size="8" fill="#f9d423">  initDatabase();</text>
    <text x="-90" y="-10" font-family="Courier New" font-size="8" fill="#f83600">  configureStorage();</text>
    <text x="-90" y="10" font-family="Courier New" font-size="8" fill="#f9d423">  deployCompute();</text>
    <text x="-90" y="30" font-family="Courier New" font-size="8" fill="#330867">  setupNetwork();</text>
    <text x="-90" y="50" font-family="Courier New" font-size="8" fill="#30cfd0">  return cloud;</text>
    <text x="-90" y="70" font-family="Courier New" font-size="8" fill="#30cfd0">}</text>
  </g>
  
  <!-- Heading -->
  <text x="400" y="80" font-family="Arial" font-size="40" font-weight="bold" fill="url(#grad1)" text-anchor="middle">Cloud Implementation</text>
  
  <!-- Subheading -->
  <text x="400" y="120" font-family="Arial" font-size="24" fill="#fff" text-anchor="middle">Building your cloud infrastructure with precision</text>
  
  <!-- Implementation Benefits -->
  <g transform="translate(200, 500)">
    <!-- Benefit 1: Reliability -->
    <circle cx="0" cy="0" r="30" fill="#f83600" opacity="0.2" />
    <text x="0" y="5" font-family="Arial" font-size="12" fill="#fff" text-anchor="middle">Reliability</text>
    
    <!-- Benefit 2: Scalability -->
    <circle cx="100" cy="0" r="30" fill="#f9d423" opacity="0.2" />
    <text x="100" y="5" font-family="Arial" font-size="12" fill="#fff" text-anchor="middle">Scalability</text>
    
    <!-- Benefit 3: Integration -->
    <circle cx="200" cy="0" r="30" fill="#30cfd0" opacity="0.2" />
    <text x="200" y="5" font-family="Arial" font-size="12" fill="#fff" text-anchor="middle">Integration</text>
    
    <!-- Benefit 4: Automation -->
    <circle cx="300" cy="0" r="30" fill="#330867" opacity="0.2" />
    <text x="300" y="5" font-family="Arial" font-size="12" fill="#fff" text-anchor="middle">Automation</text>
  </g>
</svg>